# xmcd
#
# Track frame offsets:
# 150
# 20742
# 43182
# 62402
# 80610
# 95932
# 115882
# 140365
# 156940
# 174870
# 194285
# 209747
# 229537
# 245492
# 260387
#
# Disc length: 3690 seconds
#
#
# Revision: 0
# Processed by: cddbd v1.5.1PL2 Copyright (c) Steve Scherf et al.
# Submitted via: FreeRIP 2.945 
#
DISCID=d30e680f
DTITLE=Victorino Silva - Deus Muda  Situações
DYEAR=1900
DGENRE=Gospel
TTITLE0=O Que Há de Vir
TTITLE1=Deus Muda Situações
TTITLE2=Momento de Fé
TTITLE3=Decisão
TTITLE4=Verei Jesus
TTITLE5=Louvem ao Senhor
TTITLE6=Pensando em Você
TTITLE7=Jesus Está Vivo
TTITLE8=Há Um Canto Novo
TTITLE9=Só Deus Sabe
TTITLE10=Amigo Leal
TTITLE11=Você Por Mim Orou
TTITLE12=Duas Almas no Altar
TTITLE13=Consolo em Seu Nome
TTITLE14=Meu Canto de Paz
EXTD=
EXTT0=
EXTT1=
EXTT2=
EXTT3=
EXTT4=
EXTT5=
EXTT6=
EXTT7=
EXTT8=
EXTT9=
EXTT10=
EXTT11=
EXTT12=
EXTT13=
EXTT14=
PLAYORDER=
